<?xml version="1.0" standalone="no"?>
<!DOCTYPE svg PUBLIC "-//W3C//DTD SVG 20010904//EN"
 "http://www.w3.org/TR/2001/REC-SVG-20010904/DTD/svg10.dtd">
<svg version="1.0" xmlns="http://www.w3.org/2000/svg"
 width="664.000000pt" height="697.000000pt" viewBox="0 0 664.000000 697.000000"
 preserveAspectRatio="xMidYMid meet">

<g transform="translate(0.000000,697.000000) scale(0.100000,-0.100000)"
fill="#000000" stroke="none">
<path d="M2142 6784 c-12 -8 -22 -24 -22 -35 0 -15 194 -388 287 -551 2 -4
-18 -19 -45 -32 -111 -56 -270 -173 -380 -280 -314 -305 -480 -657 -505 -1073
l-5 -83 1835 0 1836 0 -7 113 c-7 122 -43 301 -83 412 -94 260 -294 541 -512
719 -76 61 -226 163 -289 195 -23 12 -41 25 -39 29 154 278 287 534 287 550 0
12 -11 29 -25 38 -51 33 -61 22 -210 -252 -77 -141 -145 -263 -151 -272 -9
-13 -24 -10 -115 26 -199 77 -374 111 -619 119 -273 9 -475 -21 -709 -103 -69
-25 -134 -46 -144 -47 -15 -2 -50 54 -159 253 -77 140 -147 263 -155 273 -20
21 -42 22 -71 1z m391 -1098 c141 -58 113 -267 -40 -292 -138 -22 -227 161
-125 259 49 47 106 58 165 33z m1670 0 c45 -18 84 -67 92 -116 5 -32 2 -50
-17 -87 -32 -66 -67 -88 -133 -87 -68 0 -116 34 -140 98 -48 125 75 244 198
192z"/>
<path d="M789 4637 c-103 -35 -193 -119 -242 -224 l-22 -48 0 -960 0 -960 31
-65 c56 -118 157 -198 285 -227 183 -41 370 53 453 227 l31 65 3 935 c3 927 3
936 -18 1001 -69 215 -303 330 -521 256z"/>
<path d="M5568 4641 c-100 -33 -175 -95 -231 -192 -48 -84 -48 -93 -45 -1074
l3 -920 23 -58 c28 -67 112 -163 177 -201 24 -15 76 -34 116 -42 181 -41 366
51 452 225 l32 66 0 960 0 960 -33 67 c-42 85 -129 168 -209 199 -81 31 -208
36 -285 10z"/>
<path d="M1490 3238 c0 -1097 3 -1362 14 -1403 38 -143 144 -257 284 -304 53
-18 86 -21 247 -21 l185 0 0 -458 c0 -485 4 -539 46 -629 34 -71 133 -162 210
-191 244 -94 506 50 553 303 7 37 11 229 11 517 l0 458 270 0 270 0 0 -458 c0
-287 4 -480 11 -517 16 -89 46 -143 118 -216 88 -87 156 -114 286 -113 69 0
104 6 147 23 115 45 214 155 245 274 10 39 13 163 13 529 l0 478 183 0 c203 0
257 10 339 61 58 37 130 113 157 167 53 103 51 52 51 1504 l0 1348 -1820 0
-1820 0 0 -1352z"/>
</g>
</svg>
